<svg width="29" height="32" viewBox="0 0 29 32" fill="none" xmlns="http://www.w3.org/2000/svg">
<path d="M14.5 2.88125C18.3742 2.88125 18.833 2.9 20.3566 2.975C21.7727 3.04375 22.5373 3.30625 23.0471 3.525C23.7211 3.8125 24.2082 4.1625 24.7123 4.71875C25.2221 5.28125 25.5336 5.8125 25.7941 6.55625C25.9924 7.11875 26.2303 7.96875 26.2926 9.525C26.3605 11.2125 26.3775 11.7188 26.3775 15.9875C26.3775 20.2625 26.3605 20.7688 26.2926 22.45C26.2303 24.0125 25.9924 24.8563 25.7941 25.4188C25.5336 26.1625 25.2164 26.7 24.7123 27.2562C24.2025 27.8187 23.7211 28.1625 23.0471 28.45C22.5373 28.6688 21.767 28.9312 20.3566 29C18.8273 29.075 18.3686 29.0937 14.5 29.0937C10.6258 29.0937 10.167 29.075 8.64336 29C7.22734 28.9312 6.4627 28.6688 5.95293 28.45C5.27891 28.1625 4.7918 27.8125 4.2877 27.2562C3.77793 26.6937 3.46641 26.1625 3.20586 25.4188C3.00762 24.8563 2.76973 24.0063 2.70742 22.45C2.63945 20.7625 2.62246 20.2563 2.62246 15.9875C2.62246 11.7125 2.63945 11.2062 2.70742 9.525C2.76973 7.9625 3.00762 7.11875 3.20586 6.55625C3.46641 5.8125 3.78359 5.275 4.2877 4.71875C4.79746 4.15625 5.27891 3.8125 5.95293 3.525C6.4627 3.30625 7.23301 3.04375 8.64336 2.975C10.167 2.9 10.6258 2.88125 14.5 2.88125ZM14.5 0C10.5635 0 10.0707 0.01875 8.52442 0.09375C6.98379 0.16875 5.92461 0.44375 5.00703 0.8375C4.04981 1.25 3.23984 1.79375 2.43555 2.6875C1.62559 3.575 1.13281 4.46875 0.758984 5.51875C0.402148 6.5375 0.15293 7.7 0.084961 9.4C0.0169922 11.1125 0 11.6562 0 16C0 20.3437 0.0169922 20.8875 0.084961 22.5937C0.15293 24.2937 0.402148 25.4625 0.758984 26.475C1.13281 27.5312 1.62559 28.425 2.43555 29.3125C3.23984 30.2 4.04981 30.75 5.00137 31.1562C5.92461 31.55 6.97813 31.825 8.51875 31.9C10.065 31.975 10.5578 31.9937 14.4943 31.9937C18.4309 31.9937 18.9236 31.975 20.4699 31.9C22.0105 31.825 23.0697 31.55 23.9873 31.1562C24.9389 30.75 25.7488 30.2 26.5531 29.3125C27.3574 28.425 27.8559 27.5312 28.224 26.4813C28.5809 25.4625 28.8301 24.3 28.8981 22.6C28.966 20.8937 28.983 20.35 28.983 16.0063C28.983 11.6625 28.966 11.1187 28.8981 9.4125C28.8301 7.7125 28.5809 6.54375 28.224 5.53125C27.8672 4.46875 27.3744 3.575 26.5645 2.6875C25.7602 1.8 24.9502 1.25 23.9986 0.84375C23.0754 0.45 22.0219 0.175 20.4813 0.1C18.9293 0.01875 18.4365 0 14.5 0Z" fill="white"/>
<path d="M14.5 7.78125C10.3879 7.78125 7.05176 11.4625 7.05176 16C7.05176 20.5375 10.3879 24.2188 14.5 24.2188C18.6121 24.2188 21.9482 20.5375 21.9482 16C21.9482 11.4625 18.6121 7.78125 14.5 7.78125ZM14.5 21.3312C11.8322 21.3312 9.66855 18.9438 9.66855 16C9.66855 13.0563 11.8322 10.6687 14.5 10.6687C17.1678 10.6687 19.3314 13.0563 19.3314 16C19.3314 18.9438 17.1678 21.3312 14.5 21.3312Z" fill="white"/>
<path d="M23.9816 7.45611C23.9816 8.51861 23.2 9.37486 22.2428 9.37486C21.2799 9.37486 20.5039 8.51236 20.5039 7.45611C20.5039 6.3936 21.2855 5.53735 22.2428 5.53735C23.2 5.53735 23.9816 6.39985 23.9816 7.45611Z" fill="white"/>
</svg>
